<?xml version="1.0" encoding="utf-8"?>
<!-- Generator: Adobe Illustrator 23.0.3, SVG Export Plug-In . SVG Version: 6.00 Build 0)  -->
<svg version="1.1" id="Layer_1" xmlns="http://www.w3.org/2000/svg" xmlns:xlink="http://www.w3.org/1999/xlink" x="0px" y="0px"
	 viewBox="0 0 135 40" style="enable-background:new 0 0 135 40;" xml:space="preserve">
<style type="text/css">
	.st0{fill:none;}
	.st1{fill:#A6A6A6;}
	.st2{fill:#FFFFFF;}
	.st3{fill:url(#SVGID_1_);}
	.st4{fill:url(#SVGID_2_);}
	.st5{fill:url(#SVGID_3_);}
	.st6{fill:url(#SVGID_4_);}
	.st7{opacity:0.2;enable-background:new    ;}
	.st8{opacity:0.12;enable-background:new    ;}
	.st9{opacity:0.25;fill:#FFFFFF;enable-background:new    ;}
	.st10{fill:#FFFFFF;stroke:#FFFFFF;stroke-width:0.2;stroke-miterlimit:10;}
</style>
<title>ko_get</title>
<path class="st0" d="M-10-10h155v60H-10V-10z"/>
<path d="M5,0h125c2.8,0,5,2.2,5,5v30c0,2.8-2.2,5-5,5H5c-2.8,0-5-2.2-5-5V5C0,2.2,2.2,0,5,0z"/>
<path class="st1" d="M130,0.8c2.3,0,4.2,1.9,4.2,4.2v30c0,2.3-1.9,4.2-4.2,4.2H5c-2.3,0-4.2-1.9-4.2-4.2l0,0V5
	c0-2.3,1.9-4.2,4.2-4.2l0,0H130 M130,0H5C2.2,0,0,2.2,0,5v30c0,2.8,2.2,5,5,5h125c2.8,0,5-2.2,5-5V5C135,2.2,132.8,0,130,0z"/>
<path class="st2" d="M68.1,21.8c-2.3,0-4.2,1.9-4.2,4.3c0,2.3,1.9,4.2,4.3,4.2c2.3,0,4.2-1.9,4.2-4.2c0-2.3-1.8-4.2-4.1-4.3
	C68.2,21.7,68.2,21.7,68.1,21.8z M68.1,28.6c-1.4,0.1-2.7-1-2.8-2.4c-0.1-1.4,1-2.7,2.4-2.8c1.4-0.1,2.7,1,2.8,2.4
	c0,0.1,0,0.1,0,0.2C70.6,27.4,69.6,28.5,68.1,28.6C68.2,28.6,68.2,28.6,68.1,28.6z M58.8,21.8c-2.3,0-4.2,1.9-4.2,4.3
	c0,2.3,1.9,4.2,4.3,4.2c2.3,0,4.2-1.9,4.2-4.2c0-2.3-1.8-4.2-4.1-4.3C58.9,21.7,58.9,21.7,58.8,21.8L58.8,21.8z M58.8,28.6
	c-1.4,0.1-2.7-1-2.8-2.4c-0.1-1.4,1-2.7,2.4-2.8c1.4-0.1,2.7,1,2.8,2.4c0,0.1,0,0.1,0,0.2C61.3,27.4,60.2,28.5,58.8,28.6
	C58.9,28.6,58.8,28.6,58.8,28.6L58.8,28.6z M47.7,23.1v1.8h4.3c-0.1,0.8-0.4,1.6-1,2.3c-0.9,0.9-2.1,1.4-3.3,1.3
	c-2.7,0-4.8-2.1-4.8-4.8s2.1-4.8,4.8-4.8c1.2,0,2.4,0.4,3.3,1.3l1.3-1.3c-1.2-1.2-2.8-1.9-4.5-1.9c-3.6-0.1-6.7,2.7-6.9,6.3
	c-0.1,3.6,2.7,6.7,6.3,6.9c0.2,0,0.3,0,0.5,0c1.7,0.1,3.4-0.6,4.6-1.8c1-1.2,1.6-2.7,1.6-4.2c0-0.4,0-0.8-0.1-1.1L47.7,23.1z
	 M93.1,24.5c-0.5-1.6-2-2.6-3.6-2.7c-2.2,0-4,1.8-4,4c0,0.1,0,0.2,0,0.3c0,2.3,1.8,4.2,4.1,4.2c0.1,0,0.1,0,0.2,0
	c1.4,0,2.8-0.7,3.5-1.9l-1.4-1c-0.4,0.7-1.2,1.2-2.1,1.2c-0.9,0-1.7-0.5-2.1-1.3l5.7-2.3L93.1,24.5z M87.3,25.9
	c-0.1-1.3,0.9-2.4,2.2-2.5c0,0,0,0,0,0c0.7,0,1.3,0.3,1.6,0.9L87.3,25.9z M82.6,30h1.9V17.5h-1.9V30z M79.6,22.7L79.6,22.7
	c-0.6-0.6-1.5-1-2.3-1c-2.3,0.1-4.2,2.1-4,4.5c0.1,2.2,1.9,3.9,4,4c0.9,0,1.7-0.4,2.2-1h0.1v0.6c0,1.6-0.9,2.5-2.3,2.5
	c-1,0-1.8-0.6-2.1-1.5l-1.6,0.7c0.6,1.5,2.1,2.5,3.8,2.5c2.2,0,4-1.3,4-4.4V22h-1.7V22.7z M77.4,28.6c-1.4-0.1-2.5-1.4-2.4-2.8
	c0.1-1.3,1.1-2.2,2.4-2.4c1.3,0.1,2.3,1.2,2.3,2.5c0,0,0,0,0,0.1c0.1,1.3-0.9,2.5-2.2,2.6C77.5,28.6,77.5,28.6,77.4,28.6L77.4,28.6z
	 M101.8,17.5h-4.5V30h1.9v-4.7h2.6c2.1,0.2,4-1.5,4.2-3.6c0.2-2.1-1.5-4-3.6-4.2C102.2,17.5,102,17.5,101.8,17.5L101.8,17.5z
	 M101.8,23.5h-2.6v-4.3h2.7c1.2,0,2.1,1,2.1,2.1S103,23.5,101.8,23.5L101.8,23.5z M113.3,21.7c-1.4-0.1-2.7,0.7-3.3,1.9l1.7,0.7
	c0.3-0.6,1-1,1.7-0.9c1-0.1,1.9,0.6,2,1.6c0,0,0,0,0,0v0.1c-0.6-0.3-1.3-0.5-1.9-0.5c-1.8,0-3.6,1-3.6,2.8c0.1,1.6,1.4,2.8,3,2.8
	c0,0,0.1,0,0.1,0c1,0.1,1.9-0.4,2.4-1.2h0.1v1h1.8v-4.8C117.2,23,115.5,21.7,113.3,21.7L113.3,21.7z M113.1,28.6
	c-0.6,0-1.5-0.3-1.5-1.1c0-1,1.1-1.3,2-1.3c0.6,0,1.2,0.1,1.7,0.4C115.2,27.7,114.3,28.6,113.1,28.6L113.1,28.6z M123.7,22l-2.1,5.4
	h-0.1l-2.2-5.4h-2l3.3,7.6l-1.9,4.2h1.9l5.1-11.8H123.7z M106.9,30h1.9V17.5h-1.9V30z"/>
<linearGradient id="SVGID_1_" gradientUnits="userSpaceOnUse" x1="21.8025" y1="657.1062" x2="5.0225" y2="673.8862" gradientTransform="matrix(1 0 0 1 0 -648.3937)">
	<stop  offset="0" style="stop-color:#00A0FF"/>
	<stop  offset="1.000000e-02" style="stop-color:#00A1FF"/>
	<stop  offset="0.26" style="stop-color:#00BEFF"/>
	<stop  offset="0.51" style="stop-color:#00D2FF"/>
	<stop  offset="0.76" style="stop-color:#00DFFF"/>
	<stop  offset="1" style="stop-color:#00E3FF"/>
</linearGradient>
<path class="st3" d="M10.4,7.5C10.1,7.9,9.9,8.4,10,8.9v22.1c0,0.5,0.1,1,0.5,1.4l0.1,0.1l12.4-12.4v-0.3L10.4,7.5L10.4,7.5z"/>
<linearGradient id="SVGID_2_" gradientUnits="userSpaceOnUse" x1="33.83" y1="668.3937" x2="9.64" y2="668.3937" gradientTransform="matrix(1 0 0 1 0 -648.3937)">
	<stop  offset="0" style="stop-color:#FFE000"/>
	<stop  offset="0.41" style="stop-color:#FFBD00"/>
	<stop  offset="0.78" style="stop-color:#FFA500"/>
	<stop  offset="1" style="stop-color:#FF9C00"/>
</linearGradient>
<path class="st4" d="M27,24.3l-4.1-4.1v-0.3l4.1-4.1l0.1,0l4.9,2.8c1.4,0.8,1.4,2.1,0,2.9l-4.9,2.8L27,24.3z"/>
<linearGradient id="SVGID_3_" gradientUnits="userSpaceOnUse" x1="24.8275" y1="670.6912" x2="2.0675" y2="693.4412" gradientTransform="matrix(1 0 0 1 0 -648.3937)">
	<stop  offset="0" style="stop-color:#FF3A44"/>
	<stop  offset="1" style="stop-color:#C31162"/>
</linearGradient>
<path class="st5" d="M27.1,24.2L22.9,20L10.4,32.5c0.6,0.5,1.5,0.5,2.1,0.1L27.1,24.2"/>
<linearGradient id="SVGID_4_" gradientUnits="userSpaceOnUse" x1="7.2975" y1="648.5762" x2="17.4575" y2="658.7362" gradientTransform="matrix(1 0 0 1 0 -648.3937)">
	<stop  offset="0" style="stop-color:#32A071"/>
	<stop  offset="7.000000e-02" style="stop-color:#2DA771"/>
	<stop  offset="0.48" style="stop-color:#15CF74"/>
	<stop  offset="0.8" style="stop-color:#06E775"/>
	<stop  offset="1" style="stop-color:#00F076"/>
</linearGradient>
<path class="st6" d="M27.1,15.8L12.5,7.5C11.9,7,11,7,10.4,7.5L22.9,20L27.1,15.8z"/>
<path class="st7" d="M27,24.1l-14.5,8.2c-0.6,0.4-1.4,0.4-2,0l-0.1,0.1l0.1,0.1c0.6,0.4,1.4,0.4,2,0l14.6-8.3L27,24.1z"/>
<path class="st8" d="M10.4,32.3c-0.3-0.4-0.5-0.9-0.5-1.4v0.2c0,0.5,0.1,1,0.5,1.4V32.3L10.4,32.3z M32,21.3l-5,2.8l0.1,0.1l4.9-2.8
	c0.6-0.3,0.9-0.8,1-1.4C32.9,20.6,32.5,21,32,21.3z"/>
<path class="st9" d="M12.5,7.6L32,18.7c0.5,0.3,0.9,0.7,1,1.3c-0.1-0.6-0.4-1.2-1-1.4L12.5,7.5C11.1,6.7,10,7.4,10,9v0.1
	C10,7.5,11.1,6.8,12.5,7.6z"/>
<path class="st10" d="M42,11.4c1.3,0,2.7-0.1,4-0.3l0.1,0.7c-1.4,0.2-2.8,0.4-4.2,0.3h-0.7V6.2h4.2v0.7H42V11.4z M49.2,9.6h-1.4v4.8
	h-0.8v-9h0.8v3.6h1.5L49.2,9.6z M58.3,9.9v0.7h-3.6v1.8h-0.8v-1.8h-3.7V9.9H58.3z M51.1,7.4c0-1.1,1.2-1.8,3.1-1.8
	c1.9,0,3.1,0.7,3.1,1.8s-1.2,1.8-3.1,1.8S51.1,8.5,51.1,7.4z M52.1,13.5h5.4v0.7h-6.2v-2.6h0.8V13.5z M52,7.4c0,0.7,0.9,1.1,2.3,1.1
	c1.4,0,2.3-0.4,2.3-1.1s-0.9-1.1-2.3-1.1S52,6.7,52,7.4z M67.2,12.5v0.7h-8.2v-0.7h3.7v-1.7h-2.6V8.1h5.3V6.7h-5.3V6h6.1v2.7h-5.3
	v1.5h5.5v0.7h-2.9v1.7L67.2,12.5z M76.6,12.4v0.7h-8.1v-0.7H76.6z M75.6,10.3h-6.2V6.2h6.1v0.7h-5.3v2.8h5.3V10.3z M80.3,6.8h2.2
	v0.7h-5.3V6.8h2.3V5.5h0.8V6.8z M82.1,10.3c0.1,1.2-0.9,2.2-2.1,2.3c-1.2,0.1-2.2-0.9-2.3-2.1c-0.1-1.2,0.9-2.2,2.1-2.3
	c0,0,0.1,0,0.1,0C81,8.1,82,8.9,82.1,10C82.1,10.1,82.1,10.2,82.1,10.3z M81.3,10.3c0-0.8-0.6-1.4-1.4-1.4c-0.8,0-1.4,0.6-1.4,1.4
	c0,0.8,0.6,1.4,1.4,1.4c0,0,0,0,0,0C80.7,11.7,81.3,11.1,81.3,10.3C81.4,10.3,81.4,10.3,81.3,10.3z M85.7,9.7h-1.5v4.6h-0.8v-9h0.8
	V9h1.5V9.7z M90.7,6.3c0,2.8-1.6,5.3-4.2,6.3L86.1,12c2.1-0.8,3.6-2.7,3.8-5h-3.4V6.3L90.7,6.3z M93.4,5.3v9h-0.8v-9H93.4z"/>
</svg>
